<?xml version="1.0" standalone="no"?>
<!DOCTYPE svg PUBLIC "-//W3C//DTD SVG 20010904//EN"
 "http://www.w3.org/TR/2001/REC-SVG-20010904/DTD/svg10.dtd">
<svg version="1.0" xmlns="http://www.w3.org/2000/svg"
 width="868.000000pt" height="430.000000pt" viewBox="0 0 868.000000 430.000000"
 preserveAspectRatio="xMidYMid meet">

<g transform="translate(0.000000,430.000000) scale(0.100000,-0.100000)"
fill="#000000" stroke="none">
<path d="M2300 3785 l0 -515 210 0 210 0 0 75 0 74 -132 3 -133 3 -3 438 -2
437 -75 0 -75 0 0 -515z"/>
<path d="M2830 3785 l0 -515 80 0 80 0 0 515 0 515 -80 0 -80 0 0 -515z"/>
<path d="M3100 3785 l0 -515 153 0 c83 0 169 5 189 10 55 16 117 68 147 125
23 44 26 62 26 150 0 116 -21 175 -80 230 l-36 32 25 17 c60 38 91 170 66 274
-19 80 -56 128 -124 162 -58 29 -63 30 -213 30 l-153 0 0 -515z m300 340 c26
-24 43 -89 35 -132 -15 -83 -50 -113 -130 -113 l-45 0 0 136 0 136 60 -4 c39
-3 66 -11 80 -23z m-1 -411 c32 -23 51 -73 51 -136 0 -99 -59 -162 -145 -156
l-40 3 -3 153 -3 152 59 0 c37 0 66 -6 81 -16z"/>
<path d="M3730 3785 l0 -516 78 3 77 3 3 193 2 193 53 -3 52 -3 46 -190 45
-190 82 -3 c45 -2 82 0 82 4 0 4 -25 105 -56 225 l-55 218 29 38 c46 58 54
102 51 259 -4 130 -6 142 -31 186 -15 25 -45 57 -65 70 -35 21 -50 23 -215 26
l-178 4 0 -517z m299 350 c16 -8 31 -22 35 -30 3 -9 6 -66 6 -125 0 -100 -2
-111 -24 -136 -20 -24 -32 -28 -90 -32 l-66 -4 0 171 0 171 55 0 c31 0 69 -7
84 -15z"/>
<path d="M4360 3785 l0 -515 225 0 226 0 -3 78 -3 77 -143 0 -142 0 0 143 0
142 105 0 106 0 -3 78 -3 77 -103 0 -102 0 0 143 0 142 145 0 145 0 0 75 0 75
-225 0 -225 0 0 -515z"/>
<path d="M4920 3785 l0 -515 75 0 75 0 0 195 0 195 54 0 54 0 48 -195 48 -195
82 0 81 0 -6 28 c-3 15 -28 115 -56 223 l-49 197 28 37 c42 54 56 114 56 235
0 169 -35 251 -125 291 -33 16 -67 19 -202 19 l-163 0 0 -515z m288 354 c40
-14 52 -50 52 -161 0 -136 -27 -168 -141 -168 l-49 0 0 170 0 170 54 0 c29 0
67 -5 84 -11z"/>
<path d="M5550 3785 l0 -515 75 0 75 0 0 515 0 515 -75 0 -75 0 0 -515z"/>
<path d="M5985 4278 c-10 -46 -165 -976 -165 -992 0 -13 13 -16 78 -16 l78 0
18 120 18 120 83 0 83 0 6 -32 c3 -18 11 -72 17 -120 l12 -88 82 0 81 0 -85
513 -86 512 -107 3 c-105 3 -108 2 -113 -20z m139 -402 c14 -98 26 -187 26
-197 0 -16 -8 -19 -55 -19 -37 0 -55 4 -55 13 0 20 53 387 56 384 1 -1 14 -82
28 -181z"/>
<path d="M0 2805 c0 -23 4 -25 45 -25 l45 0 0 -870 0 -870 -45 0 c-41 0 -45
-2 -45 -25 l0 -25 278 0 c396 0 473 16 580 115 94 87 135 183 147 348 17 216
-76 416 -230 498 -25 13 -45 26 -45 29 0 3 19 16 41 30 50 31 113 123 137 199
27 88 23 277 -8 356 -49 126 -133 210 -247 245 -59 18 -92 20 -359 20 l-294 0
0 -25z m595 -71 c52 -27 101 -92 121 -160 12 -43 15 -90 12 -212 -3 -138 -6
-163 -26 -207 -52 -114 -109 -144 -269 -145 l-113 0 0 368 c0 203 3 372 8 376
4 4 57 6 117 4 87 -2 118 -8 150 -24z m23 -833 c53 -28 97 -77 129 -146 25
-54 28 -74 33 -200 3 -77 2 -168 -2 -203 -9 -80 -49 -169 -96 -215 -55 -53
-104 -67 -243 -67 l-119 0 0 425 0 425 130 0 c109 0 137 -3 168 -19z"/>
<path d="M2800 2800 c0 -16 7 -20 35 -20 l35 0 0 -870 0 -870 -35 0 c-31 0
-35 -3 -35 -25 l0 -25 130 0 130 0 0 40 c0 47 5 49 32 15 88 -112 280 -103
402 18 47 48 76 96 109 187 28 77 37 458 13 563 -47 202 -197 347 -359 347
-59 0 -128 -28 -169 -67 l-28 -27 0 377 0 377 -130 0 c-123 0 -130 -1 -130
-20z m530 -725 c43 -22 78 -74 95 -143 14 -52 16 -117 13 -405 l-3 -342 -28
-57 c-46 -93 -125 -128 -208 -90 -53 23 -78 45 -113 96 l-26 39 0 402 0 401
37 43 c20 24 51 50 67 57 42 18 130 17 166 -1z"/>
<path d="M1392 2192 c-79 -29 -137 -90 -142 -152 -6 -65 12 -102 56 -114 19
-6 22 -2 29 41 9 67 32 110 73 141 47 35 145 39 189 6 70 -52 93 -114 100
-281 l6 -121 -174 -4 c-166 -3 -176 -4 -225 -30 -196 -103 -243 -431 -82 -585
60 -58 120 -78 233 -78 131 1 185 27 227 108 l14 29 16 -41 c22 -55 61 -71
173 -71 78 0 85 2 85 20 0 16 -7 20 -34 20 l-35 0 -3 398 c-4 428 -6 439 -63
552 -29 57 -102 125 -162 152 -67 30 -211 35 -281 10z m305 -749 c-2 -128 -9
-223 -17 -248 -7 -22 -31 -59 -55 -82 -38 -39 -47 -43 -92 -43 -60 0 -118 34
-156 93 -57 88 -63 248 -14 350 49 98 119 136 255 137 l84 0 -5 -207z"/>
<path d="M2445 2192 c-44 -21 -74 -51 -98 -97 l-16 -30 -1 58 0 57 -135 0
c-128 0 -135 -1 -135 -20 0 -16 7 -20 35 -20 l35 0 0 -530 0 -530 -35 0 c-28
0 -35 -4 -35 -20 0 -19 7 -20 175 -20 168 0 175 1 175 20 0 17 -7 20 -40 20
l-40 0 0 423 c0 396 1 428 20 481 41 119 88 163 163 153 70 -10 109 -63 122
-169 8 -67 19 -72 67 -29 30 26 33 35 33 83 0 103 -74 173 -192 184 -45 4 -67
0 -98 -14z"/>
<path d="M3972 2191 c-77 -26 -122 -70 -142 -134 -19 -65 2 -115 58 -131 19
-6 22 -4 22 21 0 174 196 260 303 134 38 -46 56 -119 64 -253 l6 -118 -155 0
c-188 0 -235 -12 -305 -74 -183 -165 -152 -507 55 -599 27 -12 77 -22 119 -25
130 -8 223 31 261 110 12 24 21 35 22 25 0 -35 32 -79 65 -93 21 -8 69 -14
120 -14 78 0 85 2 85 20 0 16 -7 20 -34 20 l-34 0 -5 393 c-3 314 -7 402 -20
444 -32 111 -88 194 -158 239 -85 53 -229 69 -327 35z m300 -565 c10 -51 9
-294 -2 -360 -20 -124 -67 -186 -148 -194 -139 -13 -241 151 -211 339 26 162
114 238 275 239 78 0 82 -1 86 -24z"/>
<path d="M5024 2191 c-48 -22 -81 -54 -100 -96 -13 -29 -13 -29 -14 28 l0 57
-135 0 c-128 0 -135 -1 -135 -20 0 -16 7 -20 35 -20 l35 0 0 -530 0 -530 -35
0 c-28 0 -35 -4 -35 -20 0 -19 7 -20 170 -20 163 0 170 1 170 20 0 16 -7 20
-35 20 l-36 0 3 443 3 442 29 62 c36 79 63 104 118 110 82 9 137 -56 153 -179
7 -54 18 -59 58 -28 58 46 53 153 -9 216 -35 35 -113 64 -168 64 -17 0 -49 -9
-72 -19z"/>
<path d="M5660 2194 c-122 -44 -204 -138 -257 -291 -23 -69 -27 -97 -31 -248
-5 -213 10 -317 64 -422 42 -84 120 -163 191 -196 70 -32 200 -31 262 2 72 38
147 117 185 192 58 115 69 190 64 417 -4 173 -8 205 -28 262 -65 184 -182 287
-334 296 -50 3 -84 0 -116 -12z m163 -68 c41 -17 80 -62 101 -118 15 -38 17
-89 14 -414 l-3 -371 -30 -48 c-40 -64 -73 -87 -134 -93 -70 -6 -126 27 -167
100 l-29 53 0 375 c0 365 1 376 22 415 22 41 62 84 98 103 28 16 89 15 128 -2z"/>
<path d="M6537 2200 c-209 -37 -310 -301 -199 -520 37 -73 91 -112 199 -145
177 -54 213 -96 213 -249 0 -92 -10 -124 -52 -163 -84 -79 -246 -68 -306 20
-12 19 -28 62 -35 95 -7 33 -15 63 -18 66 -3 4 -21 -4 -40 -17 -43 -29 -58
-79 -40 -136 29 -99 110 -141 271 -141 256 0 379 87 411 290 19 125 -9 247
-74 317 -48 52 -82 71 -201 112 -151 52 -179 86 -180 216 -1 47 5 94 13 112
19 47 74 77 136 77 95 0 159 -65 172 -175 3 -27 10 -49 15 -49 22 0 65 31 76
55 38 83 -23 193 -126 223 -53 16 -179 22 -235 12z"/>
<path d="M7343 2200 c-106 -22 -187 -98 -224 -207 -42 -128 -13 -289 69 -376
35 -37 75 -57 193 -96 144 -48 179 -94 179 -238 0 -140 -69 -213 -203 -213
-109 0 -177 63 -195 181 -7 46 -11 54 -27 51 -11 -2 -33 -17 -49 -34 -25 -28
-28 -36 -24 -85 5 -60 26 -95 78 -130 48 -33 94 -43 201 -43 123 0 197 15 261
54 110 66 153 163 146 330 -8 188 -60 255 -254 327 -64 24 -128 52 -141 63
-81 63 -86 271 -8 322 100 66 225 18 260 -99 8 -28 15 -61 15 -74 0 -30 21
-29 59 3 39 33 49 81 27 138 -20 52 -47 79 -107 105 -53 24 -191 35 -256 21z"/>
<path d="M8123 2196 c-97 -32 -148 -85 -159 -168 -5 -38 -3 -48 17 -70 13 -15
34 -29 47 -33 19 -5 22 -3 22 22 0 176 203 262 305 130 38 -52 54 -112 61
-248 l7 -119 -161 0 c-202 0 -245 -13 -321 -96 -69 -75 -94 -144 -95 -259 -2
-154 50 -255 160 -310 54 -27 68 -30 159 -30 129 0 186 25 226 98 l25 47 10
-36 c15 -61 49 -78 160 -82 89 -4 94 -3 94 16 0 16 -8 21 -32 24 l-33 3 -5
410 c-6 453 -6 452 -76 561 -61 97 -151 145 -284 150 -54 3 -100 -1 -127 -10z
m292 -653 c16 -225 -10 -376 -75 -438 -42 -40 -118 -46 -175 -13 -77 45 -120
139 -119 264 1 96 27 167 84 224 54 55 90 68 197 69 l81 1 7 -107z"/>
<path d="M5978 534 c-57 -18 -110 -75 -129 -142 -18 -60 -18 -195 0 -245 52
-150 244 -196 358 -85 45 44 67 115 67 219 -1 141 -56 230 -159 258 -51 14
-79 13 -137 -5z m162 -56 c51 -35 74 -90 78 -183 5 -105 -10 -160 -56 -206
-85 -84 -213 -51 -258 68 -23 60 -16 215 12 263 46 79 153 106 224 58z"/>
<path d="M2400 276 l0 -266 119 0 c167 0 216 21 240 101 21 70 -9 144 -69 169
l-31 13 31 18 c72 45 65 164 -13 206 -24 13 -63 18 -154 21 l-123 4 0 -266z
m258 197 c32 -23 41 -73 20 -111 -19 -36 -66 -52 -153 -52 l-75 0 0 96 0 96
90 -4 c70 -3 96 -9 118 -25z m-25 -214 c55 -15 77 -44 77 -100 0 -36 -6 -55
-24 -76 -23 -26 -28 -28 -130 -31 l-106 -4 0 111 0 111 73 0 c39 0 89 -5 110
-11z"/>
<path d="M2840 275 l0 -265 160 0 c153 0 160 1 160 20 0 19 -7 20 -135 20
l-135 0 0 105 0 105 115 0 c108 0 115 1 115 20 0 19 -7 20 -115 20 l-115 0 0
100 0 100 135 0 c128 0 135 1 135 20 0 19 -7 20 -160 20 l-160 0 0 -265z"/>
<path d="M3230 275 l0 -265 25 0 26 0 -1 216 c-1 119 1 218 3 220 2 3 68 -95
147 -216 131 -204 144 -220 171 -220 l29 0 0 265 0 265 -25 0 -25 0 -2 -227
-3 -228 -145 227 c-131 205 -148 227 -172 228 l-28 0 0 -265z"/>
<path d="M3710 275 l0 -265 160 0 c153 0 160 1 160 20 0 19 -7 20 -135 20
l-135 0 0 105 0 105 116 0 c112 0 115 1 112 21 -3 21 -8 22 -115 20 l-113 -2
0 100 0 101 135 0 c128 0 135 1 135 20 0 19 -7 20 -160 20 l-160 0 0 -265z"/>
<path d="M4060 538 c0 -2 32 -84 71 -183 39 -99 84 -217 101 -263 28 -76 33
-83 56 -80 20 2 29 15 52 73 14 39 59 153 98 255 40 102 72 189 72 193 0 4
-10 7 -22 7 -20 0 -31 -22 -97 -193 -108 -278 -102 -266 -112 -242 -5 11 -45
113 -89 228 -75 190 -83 207 -106 207 -13 0 -24 -1 -24 -2z"/>
<path d="M4560 275 l0 -265 160 0 c153 0 160 1 160 20 0 19 -7 20 -135 20
l-135 0 0 105 0 105 115 0 c108 0 115 1 115 20 0 19 -7 20 -115 20 l-115 0 0
100 0 100 135 0 c128 0 135 1 135 20 0 19 -7 20 -160 20 l-160 0 0 -265z"/>
<path d="M4950 276 c0 -259 1 -266 20 -266 19 0 20 7 21 188 1 103 0 202 -1
221 -1 20 3 32 9 30 6 -2 73 -101 150 -219 128 -198 141 -215 170 -218 l31 -3
0 265 0 266 -25 0 -25 0 -2 -227 -3 -227 -145 225 c-125 193 -149 224 -173
227 l-27 3 0 -265z"/>
<path d="M5400 520 c0 -18 7 -20 85 -20 l85 0 0 -245 0 -245 25 0 25 0 0 245
0 245 80 0 c73 0 80 2 80 20 0 19 -7 20 -190 20 -183 0 -190 -1 -190 -20z"/>
</g>
</svg>
