<svg xmlns="http://www.w3.org/2000/svg" id="svg0.3736502505076946" viewBox="0 0 1024 1024"><path d="M0 0 C337.92 0 675.84 0 1024 0 C1024 337.92 1024 675.84 1024 1024 C686.08 1024 348.16 1024 0 1024 C0 686.08 0 348.16 0 0 Z " transform="translate(0,0)" style="fill: #F2F2F2;"/><path d="M0 0 C27.39 0 54.78 0 83 0 C83 6.6 83 13.2 83 20 C62.21 20 41.42 20 20 20 C20 59.6 20 99.2 20 140 C13.4 140 6.8 140 0 140 C0 93.8 0 47.6 0 0 Z " transform="translate(462,344)" style="fill: #070706;"/><path d="M0 0 C5.94 0 11.88 0 18 0 C18 4.95 18 9.9 18 15 C25.59 15 33.18 15 41 15 C41 21.27 41 27.54 41 34 C33.74 34 26.48 34 19 34 C19 58.75 19 83.5 19 109 C12.73 109 6.46 109 0 109 C0 73.03 0 37.06 0 0 Z " transform="translate(504,390)" style="fill: #070606;"/><path d="M0 0 C4.95 -0.0309375 4.95 -0.0309375 10 -0.0625 C11.02351563 -0.071604 12.04703125 -0.08070801 13.1015625 -0.09008789 C28.72995766 -0.13696098 28.72995766 -0.13696098 34.140625 4.98828125 C37.98246893 9.14489811 41.49993126 13.55536558 45 18 C46.32 19.65 47.64 21.3 49 23 C49.33 15.41 49.66 7.82 50 0 C51.98 0 53.96 0 56 0 C56 11.55 56 23.1 56 35 C50 35 50 35 47.76171875 32.98046875 C47.07722656 32.05878906 46.39273438 31.13710938 45.6875 30.1875 C44.92695313 29.19492187 44.16640625 28.20234375 43.3828125 27.1796875 C42.59648437 26.13039063 41.81015625 25.08109375 41 24 C39.37439434 21.92008768 37.7215301 19.86628325 36.0625 17.8125 C35.33160156 16.89082031 34.60070312 15.96914063 33.84765625 15.01953125 C33.23792969 14.35308594 32.62820313 13.68664062 32 13 C31.34 13 30.68 13 30 13 C28.31267723 14.98260426 26.64633943 16.9832342 25 19 C24.34 19.33 23.68 19.66 23 20 C23.02320313 20.68707031 23.04640625 21.37414062 23.0703125 22.08203125 C23.09738281 23.43361328 23.09738281 23.43361328 23.125 24.8125 C23.14820313 25.70582031 23.17140625 26.59914063 23.1953125 27.51953125 C23 30 23 30 21 33 C18 32 18 32 16.83203125 30.22265625 C16.49558594 29.50980469 16.15914063 28.79695312 15.8125 28.0625 C15.46832031 27.35222656 15.12414062 26.64195312 14.76953125 25.91015625 C14 24 14 24 14 22 C11.36 22 8.72 22 6 22 C6 26.29 6 30.58 6 35 C4.02 35 2.04 35 0 35 C0 23.45 0 11.9 0 0 Z " transform="translate(436,579)" style="fill: #131212;"/><path d="M0 0 C4.22940849 3.17205636 7.42620688 6.96241452 9.5 11.875 C10.29092025 17.52443037 9.68143107 22.04800113 6.5 26.875 C2.81638274 31.1559606 -0.87201464 34.32203569 -6.6015625 35.1953125 C-12.31400757 35.48976843 -16.89361737 34.32727805 -21.5 30.875 C-26.35430498 25.57501442 -27.92717801 20.65524191 -27.84375 13.51171875 C-27.10860773 7.87284341 -23.9067581 4.2817581 -20 0.375 C-13.61364225 -2.36201046 -6.57075944 -2.11202982 0 0 Z " transform="translate(665.5,580.125)" style="fill: #151413;"/><path d="M0 0 C4.28379674 2.88907222 7.75430344 5.95802863 9.6875 10.8125 C10.3728694 17.20334711 10.6070006 23.45584918 6.6875 28.8125 C1.91237006 33.58762994 -1.92746311 34.97822584 -8.625 35.125 C-14.071894 35.05850074 -17.31494023 34.81005977 -21.3125 30.8125 C-26.07915108 25.51055655 -27.05890199 20.63890762 -26.73046875 13.58203125 C-25.74658994 7.06268477 -21.32036429 3.54176064 -16.3125 -0.1875 C-10.90616608 -1.98961131 -5.35673876 -1.92034031 0 0 Z " transform="translate(469.3125,656.1875)" style="fill: #141313;"/><path d="M0 0 C3.135 -0.103125 6.27 -0.20625 9.5 -0.3125 C10.95696289 -0.38078003 10.95696289 -0.38078003 12.44335938 -0.45043945 C18.91239415 -0.55242281 22.98572659 0.9055625 28 5 C31.85872988 8.85872988 32.3267067 12.15935762 32.5625 17.4375 C32.39143288 22.2825624 32.02869961 25.88844757 28.65063477 29.50854492 C22.77350555 34.81891061 16.64366772 35.55285219 9 35.25 C4.545 35.12625 4.545 35.12625 0 35 C0 23.45 0 11.9 0 0 Z " transform="translate(598,579)" style="fill: #161414;"/><path d="M0 0 C6 0 6 0 7.65234375 1.21484375 C8.07644531 1.78332031 8.50054688 2.35179687 8.9375 2.9375 C9.67613281 3.89269531 9.67613281 3.89269531 10.4296875 4.8671875 C10.94789063 5.57101562 11.46609375 6.27484375 12 7 C13.18534682 8.52251213 14.37289751 10.04331068 15.5625 11.5625 C16.10003906 12.26503906 16.63757813 12.96757813 17.19140625 13.69140625 C19.39960654 16.51008092 21.70772185 19.24926622 24 22 C24.33 14.74 24.66 7.48 25 0 C26.98 0 28.96 0 31 0 C31 11.55 31 23.1 31 35 C25 35 25 35 23.20483398 33.64233398 C22.72344971 33.01657471 22.24206543 32.39081543 21.74609375 31.74609375 C21.20146484 31.05580078 20.65683594 30.36550781 20.09570312 29.65429688 C19.54849609 28.92275391 19.00128906 28.19121094 18.4375 27.4375 C17.88642578 26.73302734 17.33535156 26.02855469 16.76757812 25.30273438 C13.38566612 20.94997693 10.20703017 16.48984223 7 12 C6.67 19.59 6.34 27.18 6 35 C4.02 35 2.04 35 0 35 C0 23.45 0 11.9 0 0 Z " transform="translate(530,656)" style="fill: #161616;"/><path d="M0 0 C2.31 0 4.62 0 7 0 C9.14630209 4.33674798 11.28221292 8.67839961 13.40869141 13.02490234 C14.13340049 14.50253066 14.86092008 15.97878403 15.59130859 17.45361328 C16.64123191 19.57488691 17.68091803 21.70091478 18.71875 23.828125 C19.04685669 24.48556702 19.37496338 25.14300903 19.7130127 25.82037354 C21.35700156 29.21629662 22 31.14201501 22 35 C20.02 35 18.04 35 16 35 C13 29.25 13 29.25 13 27 C7.06 27.33 1.12 27.66 -5 28 C-6.485 31.465 -6.485 31.465 -8 35 C-10.31 35 -12.62 35 -15 35 C-10.70571229 23.02119745 -5.33754512 11.5405961 0 0 Z " transform="translate(518,579)" style="fill: #141312;"/><path d="M0 0 C2.31 0 4.62 0 7 0 C11.19079348 8.18565376 15.27945893 16.40067276 19 24.8125 C19.30236572 25.48732422 19.60473145 26.16214844 19.91625977 26.85742188 C21.1768096 29.74838126 22 31.81024676 22 35 C19.1875 35.3125 19.1875 35.3125 16 35 C13.68858396 32.14925356 13 30.6860549 13 27 C7.06 27 1.12 27 -5 27 C-5.33 28.65 -5.66 30.3 -6 32 C-6.33 32.99 -6.66 33.98 -7 35 C-9.31 35 -11.62 35 -14 35 C-11.67899052 27.67575485 -8.86053019 20.63915297 -5.875 13.5625 C-5.41996094 12.47517578 -4.96492187 11.38785156 -4.49609375 10.26757812 C-1.17712355 2.3542471 -1.17712355 2.3542471 0 0 Z " transform="translate(584,656)" style="fill: #1C1B19;"/><path d="M0 0 C9.57 0 19.14 0 29 0 C29 1.98 29 3.96 29 6 C21.41 6 13.82 6 6 6 C6 8.97 6 11.94 6 15 C12.27 15 18.54 15 25 15 C25 16.65 25 18.3 25 20 C19.06 20 13.12 20 7 20 C7 22.97 7 25.94 7 29 C14.26 29 21.52 29 29 29 C29 30.98 29 32.96 29 35 C19.43 35 9.86 35 0 35 C0 23.45 0 11.9 0 0 Z " transform="translate(397,579)" style="fill: #242323;"/><path d="M0 0 C5 0 5 0 6.66577148 1.26586914 C7.14602783 1.84973389 7.62628418 2.43359863 8.12109375 3.03515625 C8.66443359 3.68033203 9.20777344 4.32550781 9.76757812 4.99023438 C10.31865234 5.67408203 10.86972656 6.35792969 11.4375 7.0625 C11.98470703 7.71927734 12.53191406 8.37605469 13.09570312 9.05273438 C14.13881491 10.30570297 15.17600754 11.56364441 16.20483398 12.82836914 C18.76118633 15.92081496 21.38886163 18.95367191 24 22 C24.33 14.74 24.66 7.48 25 0 C26.98 0 28.96 0 31 0 C31 11.55 31 23.1 31 35 C29.02 35 27.04 35 25 35 C22.87521871 32.84801667 21.27703384 30.94199622 19.5625 28.5 C18.61124559 27.21215787 17.658124 25.92569278 16.703125 24.640625 C16.24486328 24.01478516 15.78660156 23.38894531 15.31445312 22.74414062 C13.10707377 19.81518109 10.63724548 17.13848459 8.14453125 14.453125 C7 13 7 13 7 11 C6.34 11 5.68 11 5 11 C5 18.92 5 26.84 5 35 C3.35 35 1.7 35 0 35 C0 23.45 0 11.9 0 0 Z " transform="translate(553,579)" style="fill: #121110;"/><path d="M0 0 C2.53905844 1.77734091 3.50147198 2.85426876 4.5 5.75 C2.25 6.875 2.25 6.875 -0.5 7.75 C-1.84044175 7.09774381 -3.17312861 6.42943693 -4.5 5.75 C-9.11486808 5.0400203 -12.50071966 5.12544979 -16.5 7.625 C-19.84725841 11.18146206 -19.77926017 13.7838644 -19.71875 18.49609375 C-19.33130729 22.48813735 -17.46534625 24.67326765 -14.875 27.5625 C-11.22065354 29.38967323 -7.51570238 29.1531207 -3.5 28.75 C-2.84 28.42 -2.18 28.09 -1.5 27.75 C-0.84227572 24.72065509 -0.84227572 24.72065509 -0.5 21.75 C-2.81 21.75 -5.12 21.75 -7.5 21.75 C-7.5 20.1 -7.5 18.45 -7.5 16.75 C-2.88 16.75 1.74 16.75 6.5 16.75 C6.5 21.37 6.5 25.99 6.5 30.75 C-0.29792913 34.63453093 -5.60142734 37.17280686 -13.5 35.75 C-19.72593574 33.58182393 -23.63431077 29.03716675 -26.8125 23.4375 C-28.08839747 18.4499008 -28.53595688 14.13041563 -26.4375 9.30859375 C-20.41785498 -0.62054898 -11.02539684 -3.93764173 0 0 Z " transform="translate(513.5,656.25)" style="fill: #161515;"/><path d="M0 0 C3.30764889 1.28187999 6.23589487 2.78657059 8.17578125 5.8671875 C9.60412419 9.56327872 9.55337905 13.10610105 9 17 C7.39285226 20.15689734 6.02561766 22.19415756 3.25 24.375 C-0.20195844 25.33387734 -3.48005629 25.5738278 -7 25 C-10.57906887 22.82143634 -12.41660201 20.83057854 -14 17 C-14.64095668 12.9113711 -14.95574033 8.77291608 -12.94921875 5.05078125 C-8.94195043 0.16876999 -6.18965269 -0.50734858 0 0 Z " transform="translate(659,584)" style="fill: #F2F1F2;"/><path d="M0 0 C4.18531174 1.72871572 6.23950002 3.83039478 8 8 C8.59904953 12.04563587 8.42616603 15.08678707 6.6875 18.8125 C2.90869753 23.71094764 2.90869753 23.71094764 -0.05078125 24.65234375 C-4.33049879 25.19192817 -6.45884653 25.26565716 -10.4375 23.3125 C-13.4453326 20.59811448 -14.7113789 18.65679611 -15.40625 14.66796875 C-15.58166354 10.02681876 -15.37174984 6.69589106 -12.5625 2.875 C-8.80240814 -0.90291221 -5.05674992 -1.01882762 0 0 Z " transform="translate(465,661)" style="fill: #F3F3F3;"/><path d="M0 0 C8.25 0 16.5 0 25 0 C25 1.98 25 3.96 25 6 C18.73 6 12.46 6 6 6 C6 9.3 6 12.6 6 16 C11.61 16 17.22 16 23 16 C23 17.98 23 19.96 23 22 C17.39 22 11.78 22 6 22 C6 26.29 6 30.58 6 35 C4.02 35 2.04 35 0 35 C0 23.45 0 11.9 0 0 Z " transform="translate(364,579)" style="fill: #1A1918;"/><path d="M0 0 C12.27189579 -0.40456799 12.27189579 -0.40456799 17 3 C19.5890435 5.49976614 19.97190569 6.74715125 20.375 10.375 C19.96320389 14.35569577 19.1978619 16.66531299 17 20 C11.51083289 24.1072113 6.63274682 23.21866198 0 23 C0 15.41 0 7.82 0 0 Z " transform="translate(604,585)" style="fill: #F2F2F1;"/><path d="M0 0 C9.24 0 18.48 0 28 0 C28 1.65 28 3.3 28 5 C24.37 5 20.74 5 17 5 C17.00785522 6.30988892 17.00785522 6.30988892 17.01586914 7.64624023 C17.03287751 10.87589273 17.04543369 14.10552245 17.05493164 17.33520508 C17.0599708 18.73495228 17.06680216 20.1346942 17.07543945 21.53442383 C17.0875232 23.54245777 17.09269807 25.55052957 17.09765625 27.55859375 C17.10551147 29.37315063 17.10551147 29.37315063 17.11352539 31.22436523 C17 34 17 34 16 35 C14.35 35 12.7 35 11 35 C10.67 25.43 10.34 15.86 10 6 C6.7 5.67 3.4 5.34 0 5 C0 3.35 0 1.7 0 0 Z " transform="translate(409,656)" style="fill: #1B1A18;"/><path d="M0 0 C6.27 0.33 12.54 0.66 19 1 C19 1.33 19 1.66 19 2 C17.02 2.33 15.04 2.66 13 3 C13.33 3.66 13.66 4.32 14 5 C11.36 5 8.72 5 6 5 C6 13.25 6 21.5 6 30 C7.65 30 9.3 30 11 30 C10.67 30.66 10.34 31.32 10 32 C7.36 32 4.72 32 2 32 C1.67 32.66 1.34 33.32 1 34 C2.32 34.33 3.64 34.66 5 35 C3.35 35 1.7 35 0 35 C0 23.45 0 11.9 0 0 Z " transform="translate(598,579)" style="fill: #0A0909;"/><path d="M0 0 C0.33 0 0.66 0 1 0 C1.33 6.6 1.66 13.2 2 20 C2.66 19.34 3.32 18.68 4 18 C5 19 5 19 5 28 C12.59 28 20.18 28 28 28 C28 29.98 28 31.96 28 34 C18.76 34 9.52 34 0 34 C0 22.78 0 11.56 0 0 Z " transform="translate(398,580)" style="fill: #121110;"/><path d="M0 0 C1.67585347 3.59996502 3.33908513 7.20562136 5 10.8125 C5.47695313 11.83666016 5.95390625 12.86082031 6.4453125 13.91601562 C6.89648438 14.89892578 7.34765625 15.88183594 7.8125 16.89453125 C8.23144531 17.80050049 8.65039062 18.70646973 9.08203125 19.63989258 C10 22 10 22 10 25 C8.02 25 6.04 25 4 25 C3.81566406 24.43410156 3.63132812 23.86820313 3.44140625 23.28515625 C2.49257324 20.885663 1.62316133 19.0151058 0 17 C-3.01814399 15.99741516 -5.83661334 15.89185003 -9 16 C-6.72635823 13.57000464 -5.31726155 12.57194165 -2 12 C-2.515625 10.9275 -3.03125 9.855 -3.5625 8.75 C-4.58087633 6.37699099 -5.01869453 5.23679735 -4.8125 2.625 C-3.64141669 0.28283338 -2.56156399 0 0 0 Z " transform="translate(596,666)" style="fill: #141413;"/><path d="M0 0 C11.26368117 -0.271414 11.26368117 -0.271414 16 2 C17 3 17 3 17.0625 6.0625 C17.041875 7.031875 17.02125 8.00125 17 9 C13.40537669 11.25998595 10.43404325 11.20868087 6.25 11.125 C5.07953125 11.10695313 3.9090625 11.08890625 2.703125 11.0703125 C1.36507813 11.03550781 1.36507813 11.03550781 0 11 C0 7.37 0 3.74 0 0 Z " transform="translate(442,584)" style="fill: #E0DEDE;"/><path d="M0 0 C9.24 0 18.48 0 28 0 C28 1.65 28 3.3 28 5 C26.58376784 5.05447047 25.16691809 5.09300508 23.75 5.125 C22.96109375 5.14820313 22.1721875 5.17140625 21.359375 5.1953125 C18.79268059 4.9828378 17.2083933 4.28654105 15 3 C15 2.34 15 1.68 15 1 C14.01 1 13.02 1 12 1 C12 10.24 12 19.48 12 29 C11.67 29 11.34 29 11 29 C10.67 21.41 10.34 13.82 10 6 C6.7 5.67 3.4 5.34 0 5 C0 3.35 0 1.7 0 0 Z " transform="translate(409,656)" style="fill: #050404;"/><path d="M0 0 C3 1 3 1 4.38671875 3.43359375 C4.81597656 4.42488281 5.24523437 5.41617188 5.6875 6.4375 C6.34298828 7.92056641 6.34298828 7.92056641 7.01171875 9.43359375 C8 12 8 12 8 14 C3.71 14 -0.58 14 -5 14 C-1.85714286 4.42857143 -1.85714286 4.42857143 0 0 Z " transform="translate(520,587)" style="fill: #DCDBDB;"/><path d="M0 0 C2.42793704 2.16950116 3.6056281 4.00005839 4.6875 7.0625 C5.06455078 8.10083984 5.06455078 8.10083984 5.44921875 9.16015625 C6 11 6 11 6 13 C2.37 13 -1.26 13 -5 13 C-4.35780498 11.01964979 -3.71114356 9.04074744 -3.0625 7.0625 C-2.70285156 5.96035156 -2.34320312 4.85820313 -1.97265625 3.72265625 C-1 1 -1 1 0 0 Z " transform="translate(587,664)" style="fill: #ECEAEA;"/><path d="M0 0 C7.92 0 15.84 0 24 0 C24 1.32 24 2.64 24 4 C16.74 4 9.48 4 2 4 C3.32 3.34 4.64 2.68 6 2 C3.03 1.505 3.03 1.505 0 1 C0 0.67 0 0.34 0 0 Z " transform="translate(401,580)" style="fill: #040404;"/><path d="M0 0 C7.26 0 14.52 0 22 0 C22 1.32 22 2.64 22 4 C15.07 4 8.14 4 1 4 C1.33 3.34 1.66 2.68 2 2 C1.34 1.34 0.68 0.68 0 0 Z " transform="translate(404,609)" style="fill: #070605;"/><path d="M0 0 C4.62 0 9.24 0 14 0 C14 1.65 14 3.3 14 5 C9.05 5 4.1 5 -1 5 C-0.34 4.67 0.32 4.34 1 4 C0.67 2.68 0.34 1.36 0 0 Z " transform="translate(372,595)" style="fill: #050404;"/><path d="M0 0 C6.93 0 13.86 0 21 0 C20.67 0.99 20.34 1.98 20 3 C20.66 3.33 21.32 3.66 22 4 C19.70858714 4.05384521 17.41681812 4.09272087 15.125 4.125 C13.21074219 4.15980469 13.21074219 4.15980469 11.2578125 4.1953125 C8 4 8 4 6 2 C4.01178687 1.60235737 2.01055661 1.26224651 0 1 C0 0.67 0 0.34 0 0 Z " transform="translate(367,580)" style="fill: #050505;"/><path d="M0 0 C0 1.65 0 3.3 0 5 C-1.41623216 5.05447047 -2.83308191 5.09300508 -4.25 5.125 C-5.03890625 5.14820313 -5.8278125 5.17140625 -6.640625 5.1953125 C-9.20731941 4.9828378 -10.7916067 4.28654105 -13 3 C-13 2.34 -13 1.68 -13 1 C-11.02087544 0.83283412 -9.04169915 0.66628044 -7.0625 0.5 C-5.40927734 0.36078125 -5.40927734 0.36078125 -3.72265625 0.21875 C-1 0 -1 0 0 0 Z " transform="translate(437,656)" style="fill: #0D0C0C;"/><path d="M0 0 C1.65 0 3.3 0 5 0 C4.67 1.32 4.34 2.64 4 4 C1.69 4 -0.62 4 -3 4 C-2.505 3.525625 -2.01 3.05125 -1.5 2.5625 C0.11542197 1.24076302 0.11542197 1.24076302 0 0 Z " transform="translate(590,678)" style="fill: #060604;"/></svg>